<svg width="6" height="9" viewBox="0 0 6 9" fill="none" xmlns="http://www.w3.org/2000/svg">
<path fill-rule="evenodd" clip-rule="evenodd" d="M0.787986 0.724987C0.729932 0.783025 0.683881 0.851932 0.652462 0.927772C0.621042 1.00361 0.604871 1.0849 0.604871 1.16699C0.604871 1.24908 0.621042 1.33036 0.652462 1.4062C0.683881 1.48204 0.729932 1.55095 0.787986 1.60899L3.67899 4.49999L0.787986 7.39199C0.727171 7.44939 0.678494 7.51841 0.644836 7.59496C0.611179 7.67151 0.593227 7.75404 0.592043 7.83766C0.590859 7.92128 0.606467 8.00428 0.637943 8.08176C0.669419 8.15923 0.716123 8.2296 0.775288 8.2887C0.834454 8.3478 0.904877 8.39442 0.982388 8.42581C1.0599 8.4572 1.14292 8.47271 1.22654 8.47144C1.31015 8.47016 1.39266 8.45211 1.46918 8.41837C1.54569 8.38462 1.61466 8.33587 1.67199 8.27499L5.00499 4.94199C5.06304 4.88395 5.10909 4.81504 5.14051 4.7392C5.17193 4.66336 5.1881 4.58208 5.1881 4.49999C5.1881 4.4179 5.17193 4.33661 5.14051 4.26077C5.10909 4.18493 5.06304 4.11602 5.00499 4.05799L1.67199 0.724987C1.61395 0.666932 1.54504 0.620881 1.4692 0.589461C1.39336 0.558042 1.31208 0.54187 1.22999 0.54187C1.1479 0.54187 1.06661 0.558042 0.990772 0.589461C0.914933 0.620881 0.846025 0.666932 0.787986 0.724987Z" fill="#858A93"/>
</svg>
