<svg width="30" height="30" viewBox="0 0 30 30" fill="none" xmlns="http://www.w3.org/2000/svg">
<g clip-path="url(#clip0_69_1661)">
<path d="M15 1.875L17.9375 4.125L21.5625 3.625L22.9375 7.0625L26.375 8.4375L25.875 12.0625L28.125 15L25.875 17.9375L26.375 21.5625L22.9375 22.9375L21.5625 26.375L17.9375 25.875L15 28.125L12.0625 25.875L8.4375 26.375L7.0625 22.9375L3.625 21.5625L4.125 17.9375L1.875 15L4.125 12.0625L3.625 8.4375L7.0625 7.0625L8.4375 3.625L12.0625 4.125L15 1.875Z" stroke="#E31837" stroke-width="3"/>
<path d="M21.625 9.125L13.125 17.625L9.625 14.125L7.875 15.875L13.125 21.125L23.375 10.875L21.625 9.125Z" fill="#E31837"/>
</g>
<defs>
<clipPath id="clip0_69_1661">
<rect width="30" height="30" fill="white"/>
</clipPath>
</defs>
</svg>
