<svg width="40" height="40" viewBox="0 0 40 40" fill="none" xmlns="http://www.w3.org/2000/svg">
<path d="M13.333 35.0001H16.6663V30.0001H26.6663V26.6667H16.6663V23.3334H24.1663C28.7613 23.3334 32.4997 19.5951 32.4997 15.0001C32.4997 10.4051 28.7613 6.66675 24.1663 6.66675H14.9997C14.5576 6.66675 14.1337 6.84234 13.8212 7.1549C13.5086 7.46746 13.333 7.89139 13.333 8.33341V20.0001H8.33301V23.3334H13.333V26.6667H8.33301V30.0001H13.333V35.0001ZM16.6663 10.0001H24.1663C26.923 10.0001 29.1663 12.2434 29.1663 15.0001C29.1663 17.7567 26.923 20.0001 24.1663 20.0001H16.6663V10.0001Z" fill="#E31837"/>
</svg>
