<svg width="25" height="25" viewBox="0 0 25 25" fill="none" xmlns="http://www.w3.org/2000/svg">
<path d="M12.496 0.000825956C12.4762 0.00101568 12.4564 0.00171035 12.4366 0.00290929C12.3528 0.0091022 12.2702 0.0265505 12.191 0.0547843C12.131 0.0763374 12.0734 0.103909 12.0189 0.137076L2.01663 5.91145C1.87587 5.99274 1.75899 6.10965 1.67773 6.25043C1.59647 6.3912 1.5537 6.55089 1.55371 6.71343C1.55371 6.71968 1.55413 6.72676 1.55434 6.73343C1.55413 6.74072 1.55434 6.74801 1.55434 6.75551V18.2875C1.5543 18.455 1.59972 18.6194 1.68576 18.7632C1.77179 18.907 1.89521 19.0247 2.04288 19.1038L12.0411 24.8763C12.0599 24.887 12.0786 24.8969 12.0974 24.9062V24.9083C12.1255 24.9219 12.1544 24.934 12.1838 24.9446C12.1838 24.9456 12.1942 24.9477 12.1963 24.9487C12.2255 24.9592 12.2546 24.9672 12.2849 24.9743C12.2953 24.9753 12.2963 24.9774 12.3015 24.9784C12.3307 24.9847 12.3609 24.9901 12.3911 24.9936C12.3911 24.9942 12.4015 24.9946 12.4057 24.9947C12.4369 24.9978 12.4692 24.9999 12.5005 24.9999C12.5317 24.9999 12.564 24.9978 12.5953 24.9947C12.5953 24.9942 12.6057 24.9937 12.6099 24.9936C12.64 24.9905 12.6699 24.9854 12.6994 24.9784C12.7099 24.9774 12.7109 24.9763 12.7161 24.9743C12.746 24.9672 12.7756 24.9586 12.8046 24.9487C12.8046 24.9477 12.8151 24.9456 12.8171 24.9446C12.8466 24.934 12.8754 24.9219 12.9036 24.9084V24.9064C12.9226 24.8969 12.9414 24.8869 12.9599 24.8765L22.9584 19.104C23.106 19.0248 23.2294 18.9071 23.3155 18.7633C23.4015 18.6195 23.4469 18.4551 23.4468 18.2876V6.74853C23.4468 6.73916 23.4462 6.73062 23.446 6.72166L23.4463 6.71333C23.4463 6.57954 23.4172 6.44736 23.3612 6.32589C23.3051 6.20442 23.2234 6.09654 23.1216 6.00968C23.1112 6.00135 23.1018 5.99281 23.0914 5.98458C23.0914 5.98249 23.081 5.97937 23.081 5.97728C23.0455 5.95017 23.0081 5.92563 22.9691 5.90385L12.9725 0.131972C12.8264 0.0442377 12.6589 -0.00140185 12.4885 9.67893e-05L12.496 0.000825956ZM12.5064 2.34697C12.5814 2.34697 12.6567 2.36645 12.7241 2.40531L19.5331 6.33656C19.8236 6.50426 19.8236 6.92333 19.5331 7.09103L12.724 11.0223C12.6578 11.0605 12.5827 11.0806 12.5062 11.0806C12.4297 11.0806 12.3546 11.0605 12.2884 11.0223L5.47944 7.09103C5.18902 6.92343 5.18892 6.50426 5.47944 6.33656L12.2886 2.40531C12.3548 2.36715 12.43 2.34704 12.5064 2.34697ZM4.08965 9.07406C4.16827 9.07292 4.24571 9.09327 4.31361 9.13291L11.1094 13.0565C11.1755 13.0946 11.2304 13.1494 11.2685 13.2155C11.3067 13.2815 11.3267 13.3564 11.3267 13.4327V21.2792C11.3267 21.6137 10.9645 21.8229 10.6746 21.6555L3.87913 17.732C3.81306 17.6938 3.7582 17.639 3.72006 17.5729C3.68192 17.5068 3.66184 17.4319 3.66184 17.3556V9.50916C3.66184 9.25833 3.86548 9.07791 4.08965 9.07406ZM20.9229 9.07406C21.1468 9.07822 21.3507 9.25822 21.3507 9.50916V17.3555C21.3507 17.5107 21.2674 17.6543 21.1333 17.732L14.3376 21.6555C14.048 21.8228 13.6857 21.6137 13.6857 21.2791V13.4327C13.6857 13.2775 13.769 13.1341 13.903 13.0563L20.6986 9.13281C20.7666 9.09315 20.8442 9.0729 20.9229 9.07406Z" fill="white"/>
</svg>
