<svg width="21" height="5" viewBox="0 0 21 5" fill="none" xmlns="http://www.w3.org/2000/svg">
<path d="M2.6875 4.84375C2.0659 4.84375 1.46976 4.59682 1.03022 4.15728C0.59068 3.71774 0.34375 3.1216 0.34375 2.5C0.34375 1.8784 0.59068 1.28226 1.03022 0.842718C1.46976 0.40318 2.0659 0.15625 2.6875 0.15625C3.3091 0.15625 3.90524 0.40318 4.34478 0.842718C4.78432 1.28226 5.03125 1.8784 5.03125 2.5C5.03125 3.1216 4.78432 3.71774 4.34478 4.15728C3.90524 4.59682 3.3091 4.84375 2.6875 4.84375ZM10.5 4.84375C9.8784 4.84375 9.28226 4.59682 8.84272 4.15728C8.40318 3.71774 8.15625 3.1216 8.15625 2.5C8.15625 1.8784 8.40318 1.28226 8.84272 0.842718C9.28226 0.40318 9.8784 0.15625 10.5 0.15625C11.1216 0.15625 11.7177 0.40318 12.1573 0.842718C12.5968 1.28226 12.8438 1.8784 12.8438 2.5C12.8438 3.1216 12.5968 3.71774 12.1573 4.15728C11.7177 4.59682 11.1216 4.84375 10.5 4.84375ZM18.3125 4.84375C17.6909 4.84375 17.0948 4.59682 16.6552 4.15728C16.2157 3.71774 15.9688 3.1216 15.9688 2.5C15.9688 1.8784 16.2157 1.28226 16.6552 0.842718C17.0948 0.40318 17.6909 0.15625 18.3125 0.15625C18.9341 0.15625 19.5302 0.40318 19.9698 0.842718C20.4093 1.28226 20.6562 1.8784 20.6562 2.5C20.6562 3.1216 20.4093 3.71774 19.9698 4.15728C19.5302 4.59682 18.9341 4.84375 18.3125 4.84375Z" fill="#181818"/>
</svg>
