<svg width="18" height="18" viewBox="0 0 18 18" fill="none" xmlns="http://www.w3.org/2000/svg">
<path d="M8.99995 17.295C8.25412 17.295 7.71328 16.675 7.23495 16.1283C7.00117 15.8127 6.70858 15.5453 6.37328 15.3408C5.97473 15.2398 5.56023 15.218 5.15328 15.2767C4.80651 15.3535 4.44739 15.3561 4.09953 15.2843C3.75167 15.2125 3.42294 15.0679 3.13495 14.86C2.92702 14.5722 2.78239 14.2436 2.71057 13.8959C2.63876 13.5481 2.64138 13.1891 2.71828 12.8425C2.77696 12.4353 2.75516 12.0205 2.65412 11.6217C2.4499 11.2862 2.18244 10.9935 1.86662 10.76C1.32078 10.2817 0.699951 9.74083 0.699951 8.995C0.699951 8.24916 1.31912 7.70833 1.86662 7.23C2.18322 6.99809 2.45203 6.70721 2.65828 6.37333C2.75916 5.9742 2.78123 5.55924 2.72328 5.15166C2.64553 4.80551 2.64202 4.44681 2.71298 4.09921C2.78394 3.7516 2.92775 3.42298 3.13495 3.135C3.42301 2.92723 3.75174 2.78271 4.09958 2.7109C4.44741 2.6391 4.8065 2.64163 5.15328 2.71833C5.55994 2.77882 5.97453 2.75843 6.37328 2.65833C6.70858 2.45382 7.00117 2.18641 7.23495 1.87083C7.71328 1.325 8.25412 0.704163 8.99995 0.704163C9.74578 0.704163 10.2875 1.32416 10.765 1.87083C10.9991 2.18604 11.2917 2.45337 11.6266 2.65833C12.0252 2.75898 12.4397 2.78078 12.8466 2.7225C13.1934 2.64579 13.5525 2.64326 13.9003 2.71507C14.2482 2.78688 14.5769 2.9314 14.865 3.13916C15.0729 3.42698 15.2175 3.75556 15.2893 4.10329C15.3611 4.45102 15.3585 4.81002 15.2816 5.15666C15.2229 5.56389 15.2447 5.97867 15.3458 6.3775C15.5505 6.71261 15.8179 7.00516 16.1333 7.23916C16.6791 7.7175 17.2999 8.25833 17.2999 9.00416C17.2999 9.75 16.6808 10.2908 16.1333 10.77C15.8177 11.0035 15.5503 11.2958 15.3458 11.6308C15.2447 12.0297 15.2229 12.4444 15.2816 12.8517C15.3585 13.1983 15.3611 13.5573 15.2893 13.905C15.2175 14.2528 15.0729 14.5813 14.865 14.8692C14.5768 15.0767 14.248 15.2211 13.9002 15.2929C13.5525 15.3647 13.1934 15.3623 12.8466 15.2858C12.4396 15.2281 12.0253 15.2499 11.6266 15.35C11.2917 15.555 10.9991 15.8223 10.765 16.1375C10.2875 16.675 9.74995 17.295 8.99995 17.295ZM5.74412 14.4167C6.06717 14.4048 6.38939 14.4567 6.69245 14.5692C7.15079 14.8157 7.54914 15.1603 7.85912 15.5783C8.23745 16.0117 8.62912 16.4592 8.99662 16.4592C9.36412 16.4592 9.75578 16.0117 10.135 15.5783C10.4447 15.16 10.8431 14.8154 11.3016 14.5692C11.8162 14.4106 12.3594 14.3676 12.8925 14.4433C13.4508 14.4783 14.03 14.5133 14.27 14.2767C14.51 14.04 14.4741 13.4583 14.4366 12.8983C14.3609 12.3655 14.4039 11.8226 14.5624 11.3083C14.8086 10.85 15.1529 10.4516 15.5708 10.1417C16.0041 9.7625 16.4516 9.37083 16.4516 9.00333C16.4516 8.63583 16.0041 8.24416 15.5716 7.865C15.1531 7.55548 14.8085 7.15703 14.5624 6.69833C14.4039 6.18379 14.3609 5.64057 14.4366 5.1075C14.4708 4.54833 14.5066 3.97 14.27 3.73C14.0333 3.49 13.4533 3.52666 12.8925 3.56333C12.3594 3.63943 11.8161 3.59646 11.3016 3.4375C10.8431 3.19125 10.4447 2.84663 10.135 2.42833C9.75578 1.995 9.36412 1.5475 8.99662 1.5475C8.62912 1.5475 8.23745 1.995 7.85912 2.42833C7.54914 2.84639 7.15079 3.19096 6.69245 3.4375C6.17803 3.59523 5.63528 3.63818 5.10245 3.56333C4.54328 3.52916 3.96495 3.49333 3.72412 3.73C3.48328 3.96666 3.52078 4.54833 3.55745 5.1075C3.63254 5.64064 3.58929 6.18378 3.43078 6.69833C3.18447 7.15683 2.83986 7.55522 2.42162 7.865C1.98912 8.24333 1.54162 8.635 1.54162 9.0025C1.54162 9.37 1.98912 9.76166 2.42245 10.1408C2.84049 10.4506 3.18483 10.849 3.43078 11.3075C3.58938 11.8217 3.63235 12.3647 3.55662 12.8975C3.52245 13.4575 3.48662 14.0358 3.72328 14.2758C3.95995 14.5158 4.54162 14.48 5.10162 14.4425C5.31578 14.4325 5.53162 14.4167 5.74412 14.4167Z" fill="#FF3F5C"/>
<path d="M7.68394 7.53C7.60536 7.60918 7.51189 7.67203 7.40891 7.71494C7.30594 7.75784 7.19549 7.77995 7.08394 7.78C6.97351 7.78068 6.8641 7.75886 6.76238 7.71588C6.66066 7.6729 6.56876 7.60965 6.49227 7.53C6.37447 7.41216 6.29426 7.26204 6.26177 7.09862C6.22929 6.9352 6.24599 6.76582 6.30976 6.61188C6.37354 6.45795 6.48152 6.32639 6.62007 6.23383C6.75861 6.14126 6.92149 6.09186 7.08811 6.09186C7.25473 6.09186 7.4176 6.14126 7.55615 6.23383C7.69469 6.32639 7.80267 6.45795 7.86645 6.61188C7.93022 6.76582 7.94692 6.9352 7.91444 7.09862C7.88195 7.26204 7.80174 7.41216 7.68394 7.53Z" fill="#FF3F5C"/>
<path d="M6.29485 12.1225C6.21234 12.1227 6.13163 12.0983 6.06298 12.0525C5.99432 12.0067 5.9408 11.9416 5.9092 11.8654C5.8776 11.7892 5.86935 11.7053 5.88549 11.6243C5.90163 11.5434 5.94143 11.4691 5.99985 11.4108L11.4107 6.00001C11.4491 5.96021 11.4951 5.92847 11.5459 5.90663C11.5968 5.88479 11.6514 5.8733 11.7068 5.87282C11.7621 5.87234 11.817 5.88288 11.8682 5.90383C11.9194 5.92478 11.9659 5.95572 12.005 5.99484C12.0441 6.03396 12.0751 6.08049 12.096 6.13169C12.117 6.1829 12.1275 6.23777 12.127 6.29309C12.1266 6.34841 12.1151 6.40309 12.0932 6.45392C12.0714 6.50476 12.0396 6.55074 11.9999 6.58917L6.58902 12C6.51107 12.0782 6.40527 12.1223 6.29485 12.1225Z" fill="#FF3F5C"/>
<path d="M11.5091 11.6667C11.431 11.7464 11.3376 11.8097 11.2345 11.8526C11.1314 11.8955 11.0208 11.9173 10.9091 11.9167C10.7987 11.9174 10.6893 11.8956 10.5876 11.8526C10.4859 11.8096 10.394 11.7463 10.3175 11.6667C10.1997 11.5489 10.1195 11.3987 10.087 11.2353C10.0545 11.0719 10.0712 10.9025 10.135 10.7486C10.1987 10.5946 10.3067 10.4631 10.4453 10.3705C10.5838 10.278 10.7467 10.2285 10.9133 10.2285C11.0799 10.2285 11.2428 10.278 11.3813 10.3705C11.5199 10.4631 11.6279 10.5946 11.6916 10.7486C11.7554 10.9025 11.7721 11.0719 11.7396 11.2353C11.7071 11.3987 11.6269 11.5489 11.5091 11.6667Z" fill="#FF3F5C"/>
</svg>
