<svg width="26" height="24" viewBox="0 0 26 24" fill="none" xmlns="http://www.w3.org/2000/svg">
<path d="M11.7471 17L17.9971 12L11.7471 7V10.75H0.49707V13.25H11.7471V17Z" fill="white"/>
<path d="M14.2489 0.748761C12.7709 0.744663 11.3066 1.0339 9.94113 1.59972C8.57562 2.16553 7.33595 2.99668 6.29395 4.04501L8.06144 5.81251C9.71394 4.16001 11.9114 3.24876 14.2489 3.24876C16.5864 3.24876 18.7839 4.16001 20.4364 5.81251C22.0889 7.46501 23.0002 9.66251 23.0002 12C23.0002 14.3375 22.0889 16.535 20.4364 18.1875C18.7839 19.84 16.5864 20.7513 14.2489 20.7513C11.9114 20.7513 9.71394 19.84 8.06144 18.1875L6.29395 19.955C8.4177 22.08 11.2427 23.2513 14.2489 23.2513C17.2552 23.2513 20.0802 22.08 22.2039 19.955C24.3289 17.8313 25.5002 15.0063 25.5002 12C25.5002 8.99376 24.3289 6.16876 22.2039 4.04501C21.1619 2.99668 19.9223 2.16553 18.5568 1.59972C17.1912 1.0339 15.727 0.744663 14.2489 0.748761Z" fill="white"/>
</svg>
