<svg width="35" height="35" viewBox="0 0 35 35" fill="none" xmlns="http://www.w3.org/2000/svg">
<g clip-path="url(#clip0_69_1649)">
<path d="M17.5003 32.0834C9.44595 32.0834 2.91699 25.5545 2.91699 17.5001C2.91699 9.44571 9.44595 2.91675 17.5003 2.91675C25.5547 2.91675 32.0837 9.44571 32.0837 17.5001C32.0837 25.5545 25.5547 32.0834 17.5003 32.0834ZM17.5003 29.1667C20.5945 29.1667 23.562 27.9376 25.7499 25.7497C27.9378 23.5617 29.167 20.5943 29.167 17.5001C29.167 14.4059 27.9378 11.4384 25.7499 9.2505C23.562 7.06258 20.5945 5.83341 17.5003 5.83341C14.4061 5.83341 11.4387 7.06258 9.25075 9.2505C7.06282 11.4384 5.83366 14.4059 5.83366 17.5001C5.83366 20.5943 7.06282 23.5617 9.25075 25.7497C11.4387 27.9376 14.4061 29.1667 17.5003 29.1667ZM10.2087 18.9584H23.3337V21.8751H17.5003V26.2501L10.2087 18.9584ZM17.5003 13.1251V8.75008L24.792 16.0417H11.667V13.1251H17.5003Z" fill="#E31837"/>
</g>
<defs>
<clipPath id="clip0_69_1649">
<rect width="35" height="35" fill="white"/>
</clipPath>
</defs>
</svg>
