<svg width="26" height="24" viewBox="0 0 26 24" fill="none" xmlns="http://www.w3.org/2000/svg">
<path d="M18.4844 0.75C16.3516 0.75 14.3418 1.72852 13 3.32227C11.6582 1.72852 9.64844 0.75 7.51562 0.75C3.73633 0.75 0.8125 3.69141 0.8125 7.49414C0.8125 12.1523 4.95508 15.8906 11.2305 21.6562L13 23.25L14.7695 21.6562C21.0449 15.8906 25.1875 12.1523 25.1875 7.49414C25.1875 3.69141 22.2637 0.75 18.4844 0.75ZM13.75 20.0449L13.5039 20.2734L13 20.7305L12.4961 20.2734L12.25 20.0449C9.29688 17.332 6.74219 14.9883 5.06055 12.8965C3.41992 10.8633 2.69336 9.19922 2.69336 7.49414C2.69336 6.15234 3.18555 4.92188 4.08203 4.01953C4.97266 3.11719 6.19141 2.625 7.51562 2.625C9.04492 2.625 10.5625 3.33984 11.5645 4.5293L13 6.23438L14.4355 4.5293C15.4375 3.33398 16.9551 2.625 18.4844 2.625C19.8086 2.625 21.0273 3.11719 21.9238 4.01953C22.8203 4.92188 23.3125 6.1582 23.3125 7.49414C23.3125 9.19336 22.5801 10.8633 20.9453 12.8965C19.2578 14.9883 16.709 17.332 13.75 20.0449Z" fill="#181818"/>
</svg>
