<svg width="27" height="27" viewBox="0 0 27 27" fill="none" xmlns="http://www.w3.org/2000/svg">
<g clip-path="url(#clip0_64_1466)">
<path d="M25.4831 1.25653C24.6862 0.459705 23.6136 0 22.4184 0H18.281V1.65494H22.3877C23.1232 1.65494 23.7975 1.96141 24.2878 2.45176C24.7782 2.94211 25.0846 3.61635 25.0846 4.35187V8.73439H26.7396V4.32123C26.7396 3.12599 26.2492 2.05335 25.4831 1.25653Z" fill="#989898"/>
<path d="M2.71226 24.5176C2.22191 24.0272 1.91544 23.353 1.91544 22.6175V18.2656H0.260498V22.6481C0.260498 23.8433 0.75085 24.916 1.51702 25.7128C2.34449 26.479 3.41714 26.9693 4.61237 26.9693H8.71907V25.3144H4.61237C3.87684 25.3144 3.20261 25.0079 2.71226 24.5176Z" fill="#989898"/>
<path d="M25.054 22.6481C25.054 23.3836 24.7475 24.0579 24.2572 24.5482C23.7668 25.0386 23.0926 25.3451 22.3571 25.3451H18.281V27H22.3877C23.5829 27 24.6556 26.5096 25.4524 25.7435C26.2492 24.9466 26.7089 23.874 26.7089 22.6788V18.2656H25.054V22.6481Z" fill="#989898"/>
<path d="M1.54779 1.25653C0.750965 2.05335 0.29126 3.12599 0.29126 4.32123V8.70375H1.9462V4.32123C1.9462 3.5857 2.25267 2.91146 2.74302 2.42111C3.23337 1.93076 3.90761 1.62429 4.64313 1.62429H8.74983V0H4.61249C3.41725 0 2.34461 0.490352 1.54779 1.25653Z" fill="#989898"/>
</g>
<defs>
<clipPath id="clip0_64_1466">
<rect width="27" height="27" fill="white"/>
</clipPath>
</defs>
</svg>
