<svg width="26" height="26" viewBox="0 0 26 26" fill="none" xmlns="http://www.w3.org/2000/svg">
<g clip-path="url(#clip0_69_1115)">
<path d="M23.2781 3.26525C20.343 0.79728 15.8082 1.16798 13 4.02697C10.1918 1.16798 5.65704 0.792202 2.72188 3.26525C-1.09687 6.4797 -0.538275 11.7203 2.1836 14.4981L11.0906 23.5727C11.5984 24.0906 12.2789 24.3801 13 24.3801C13.7262 24.3801 14.4016 24.0957 14.9094 23.5777L23.8164 14.5031C26.5332 11.7254 27.102 6.48478 23.2781 3.26525ZM22.0797 12.7867L13.1727 21.8613C13.0508 21.9832 12.9492 21.9832 12.8274 21.8613L3.92032 12.7867C2.0668 10.8977 1.69102 7.32267 4.29102 5.134C6.26641 3.47345 9.31329 3.72228 11.2227 5.6672L13 7.48009L14.7774 5.6672C16.6969 3.71212 19.7438 3.47345 21.709 5.12892C24.3039 7.31759 23.918 10.9129 22.0797 12.7867Z" fill="white"/>
</g>
<defs>
<clipPath id="clip0_69_1115">
<rect width="26" height="26" fill="white"/>
</clipPath>
</defs>
</svg>
