<svg width="27" height="27" viewBox="0 0 27 27" fill="none" xmlns="http://www.w3.org/2000/svg">
<path d="M11.2457 9.03106C11.2457 7.7793 12.2596 6.76543 13.5 6.76543C14.7404 6.76543 15.7543 7.7793 15.7543 9.03106C15.7543 10.2771 14.7404 11.2854 13.5 11.2854C12.2596 11.2854 11.2457 10.2715 11.2457 9.03106ZM26.1875 3.53125V23.4688C26.1875 24.9697 24.9697 26.1875 23.4688 26.1875H3.53125C2.03027 26.1875 0.8125 24.9697 0.8125 23.4688V3.53125C0.8125 2.03027 2.03027 0.8125 3.53125 0.8125H23.4688C24.9697 0.8125 26.1875 2.03027 26.1875 3.53125ZM8.90644 9.03106C8.90644 11.5572 10.9682 13.6133 13.5 13.6133C16.0318 13.6133 18.0936 11.5629 18.0936 9.03106C18.0936 6.49356 16.0318 4.4375 13.5 4.4375C10.9682 4.4375 8.90644 6.48789 8.90644 9.03106ZM18.7902 14.1684C18.5297 13.6529 17.8104 13.2168 16.8588 13.9645C16.8588 13.9645 15.573 14.984 13.5 14.984C11.427 14.984 10.1412 13.9645 10.1412 13.9645C9.18965 13.2168 8.47031 13.6529 8.20977 14.1684C7.76231 15.0803 8.27207 15.5107 9.42188 16.2641C10.4018 16.8928 11.7555 17.125 12.6277 17.2156L11.8971 17.9463C10.8662 18.9658 9.88633 19.957 9.19531 20.648C8.19844 21.6449 9.80137 23.2422 10.8039 22.268L13.5057 19.5549C14.5365 20.5857 15.5277 21.577 16.2074 22.268C17.2043 23.2422 18.8129 21.6619 17.8273 20.648L15.1256 17.9463L14.3893 17.2156C15.2672 17.125 16.6039 16.8814 17.5725 16.2641C18.7279 15.5107 19.232 15.0746 18.7902 14.1684Z" fill="#989898"/>
</svg>
