<svg width="23" height="23" viewBox="0 0 23 23" fill="none" xmlns="http://www.w3.org/2000/svg">
<g clip-path="url(#clip0_69_1166)">
<path d="M14.375 4.3125C14.7562 4.3125 15.1219 4.46395 15.3915 4.73353C15.661 5.00312 15.8125 5.36875 15.8125 5.75V17.25C15.8125 17.6312 15.661 17.9969 15.3915 18.2665C15.1219 18.536 14.7562 18.6875 14.375 18.6875H8.625C8.24375 18.6875 7.87812 18.536 7.60853 18.2665C7.33895 17.9969 7.1875 17.6312 7.1875 17.25V5.75C7.1875 5.36875 7.33895 5.00312 7.60853 4.73353C7.87812 4.46395 8.24375 4.3125 8.625 4.3125H14.375ZM8.625 2.875C7.8625 2.875 7.13123 3.1779 6.59207 3.71707C6.0529 4.25623 5.75 4.9875 5.75 5.75V17.25C5.75 18.0125 6.0529 18.7438 6.59207 19.2829C7.13123 19.8221 7.8625 20.125 8.625 20.125H14.375C15.1375 20.125 15.8688 19.8221 16.4079 19.2829C16.9471 18.7438 17.25 18.0125 17.25 17.25V5.75C17.25 4.9875 16.9471 4.25623 16.4079 3.71707C15.8688 3.1779 15.1375 2.875 14.375 2.875H8.625Z" fill="white"/>
<path d="M11.5 17.25C11.8813 17.25 12.2469 17.0985 12.5165 16.829C12.7861 16.5594 12.9375 16.1937 12.9375 15.8125C12.9375 15.4312 12.7861 15.0656 12.5165 14.796C12.2469 14.5264 11.8813 14.375 11.5 14.375C11.1188 14.375 10.7531 14.5264 10.4835 14.796C10.214 15.0656 10.0625 15.4312 10.0625 15.8125C10.0625 16.1937 10.214 16.5594 10.4835 16.829C10.7531 17.0985 11.1188 17.25 11.5 17.25ZM2.29857 5.83336C2.38203 5.87752 2.45597 5.93769 2.51616 6.01043C2.57636 6.08316 2.62163 6.16705 2.6494 6.25729C2.67717 6.34753 2.68688 6.44236 2.67799 6.53636C2.6691 6.63036 2.64177 6.72168 2.59757 6.80511C1.83318 8.25181 1.43488 9.86376 1.43751 11.5C1.43751 13.1962 1.85726 14.7947 2.59757 16.1949C2.68679 16.3634 2.7054 16.5604 2.64933 16.7427C2.59326 16.9249 2.46709 17.0774 2.29857 17.1666C2.13006 17.2558 1.93301 17.2744 1.75077 17.2184C1.56854 17.1623 1.41604 17.0361 1.32682 16.8676C0.452858 15.2136 -0.0026846 13.3707 1.19017e-05 11.5C1.19017e-05 9.56368 0.480137 7.73518 1.32682 6.13236C1.37098 6.04891 1.43115 5.97497 1.50389 5.91478C1.57663 5.85458 1.66051 5.80931 1.75075 5.78154C1.841 5.75377 1.93582 5.74406 2.02982 5.75295C2.12382 5.76184 2.21514 5.78917 2.29857 5.83336ZM20.7015 5.83336C20.7849 5.78917 20.8762 5.76184 20.9702 5.75295C21.0642 5.74406 21.159 5.75377 21.2493 5.78154C21.3395 5.80931 21.4234 5.85458 21.4961 5.91478C21.5689 5.97497 21.629 6.04891 21.6732 6.13236C22.5472 7.78636 23.0028 9.62927 23 11.5C23.0028 13.3707 22.5472 15.2136 21.6732 16.8676C21.584 17.0361 21.4315 17.1623 21.2493 17.2184C21.067 17.2744 20.87 17.2558 20.7015 17.1666C20.5329 17.0774 20.4068 16.9249 20.3507 16.7427C20.2946 16.5604 20.3132 16.3634 20.4025 16.1949C21.1669 14.7482 21.5652 13.1362 21.5625 11.5C21.5625 9.80374 21.1428 8.20524 20.4025 6.80511C20.3583 6.72168 20.3309 6.63036 20.322 6.53636C20.3131 6.44236 20.3229 6.34753 20.3506 6.25729C20.3784 6.16705 20.4237 6.08316 20.4839 6.01043C20.5441 5.93769 20.618 5.87752 20.7015 5.83336ZM4.39445 7.95511C4.48245 7.98943 4.56283 8.04075 4.63098 8.10615C4.69914 8.17155 4.75373 8.24973 4.79165 8.33625C4.82956 8.42276 4.85006 8.51589 4.85195 8.61033C4.85385 8.70477 4.83711 8.79865 4.8027 8.88662C4.47774 9.71954 4.31148 10.6059 4.31251 11.5C4.31251 12.4229 4.48501 13.3041 4.80126 14.1134C4.84138 14.2022 4.863 14.2983 4.86482 14.3957C4.86664 14.4932 4.84861 14.59 4.81184 14.6803C4.77507 14.7706 4.72032 14.8524 4.65092 14.9209C4.58153 14.9893 4.49893 15.0429 4.40816 15.0785C4.31739 15.114 4.22034 15.1307 4.12291 15.1275C4.02549 15.1244 3.92973 15.1014 3.84144 15.0601C3.75316 15.0188 3.67421 14.9599 3.60939 14.8871C3.54457 14.8143 3.49524 14.7291 3.46439 14.6366C3.07406 13.637 2.87416 12.5731 2.87501 11.5C2.87501 10.3946 3.08345 9.33655 3.46439 8.36336C3.5337 8.18598 3.67057 8.04336 3.84496 7.96682C4.01934 7.89027 4.21697 7.88606 4.39445 7.95511ZM18.6056 7.95511C18.6935 7.9207 18.7874 7.90397 18.8819 7.90586C18.9763 7.90776 19.0694 7.92825 19.1559 7.96617C19.2425 8.00408 19.3206 8.05868 19.386 8.12683C19.4514 8.19499 19.5028 8.27536 19.5371 8.36336C19.9166 9.33655 20.125 10.3946 20.125 11.5C20.125 12.6054 19.9166 13.6634 19.5356 14.6366C19.4598 14.8046 19.3224 14.937 19.1517 15.0065C18.981 15.076 18.7902 15.0773 18.6186 15.0101C18.447 14.943 18.3078 14.8125 18.2296 14.6456C18.1515 14.4787 18.1404 14.2882 18.1988 14.1134C18.515 13.3041 18.6875 12.4229 18.6875 11.5C18.6875 10.5771 18.515 9.69593 18.1988 8.88662C18.1292 8.70914 18.133 8.5113 18.2093 8.33661C18.2855 8.16192 18.4281 8.02469 18.6056 7.95511Z" fill="white"/>
</g>
<defs>
<clipPath id="clip0_69_1166">
<rect width="23" height="23" fill="white"/>
</clipPath>
</defs>
</svg>
