<svg width="28" height="24" viewBox="0 0 28 24" fill="none" xmlns="http://www.w3.org/2000/svg">
<path d="M18.4883 0.583984L22.7697 7.99998H27.3337V10.6667H25.7777L24.7683 22.7773C24.7406 23.1105 24.5887 23.4211 24.3427 23.6476C24.0967 23.874 23.7747 23.9998 23.4403 24H4.56033C4.22599 23.9998 3.90392 23.874 3.65795 23.6476C3.41199 23.4211 3.26008 23.1105 3.23233 22.7773L2.22166 10.6667H0.666992V7.99998H5.22966L9.51233 0.583984L11.8217 1.91732L8.30966 7.99998H19.6897L16.179 1.91732L18.4883 0.583984ZM23.1017 10.6667H4.89766L5.78699 21.3333H22.2123L23.1017 10.6667ZM15.3337 13.3333V18.6667H12.667V13.3333H15.3337ZM10.0003 13.3333V18.6667H7.33366V13.3333H10.0003ZM20.667 13.3333V18.6667H18.0003V13.3333H20.667Z" fill="white"/>
</svg>
