<svg width="28" height="28" viewBox="0 0 28 28" fill="none" xmlns="http://www.w3.org/2000/svg">
<path d="M14.0002 0.199951C6.391 0.199951 0.200195 6.39075 0.200195 14C0.200195 21.6092 6.391 27.8 14.0002 27.8C21.61 27.8 27.8002 21.6092 27.8002 14C27.8002 6.39075 21.61 0.199951 14.0002 0.199951ZM19.984 16.721C21.3262 17.9126 21.6052 18.338 21.6508 18.4106C22.207 19.2926 21.034 19.4 21.034 19.4H18.562C18.562 19.4 17.9602 19.4066 17.446 19.0658C16.6078 18.5168 15.73 17.4524 15.1132 17.6372C14.5954 17.792 14.6002 18.4916 14.6002 19.0898C14.6002 19.304 14.416 19.4 14.0002 19.4C13.5844 19.4 13.4116 19.4 13.2274 19.4C11.8732 19.4 10.4038 18.944 8.938 17.4122C6.8644 15.2468 5.0458 10.8848 5.0458 10.8848C5.0458 10.8848 4.9384 10.6652 5.0554 10.5314C5.188 10.3814 5.5486 10.4006 5.5486 10.4006L7.9456 10.4C7.9456 10.4 8.1712 10.4426 8.3332 10.5566C8.467 10.6502 8.5414 10.829 8.5414 10.829C8.5414 10.829 8.944 12.1586 9.457 13.0064C10.459 14.6612 10.9252 14.7032 11.2654 14.525C11.7622 14.267 11.6002 12.5078 11.6002 12.5078C11.6002 12.5078 11.6224 11.7524 11.3632 11.4158C11.1634 11.1554 10.7812 11.0168 10.6144 10.9952C10.4794 10.9778 10.705 10.7414 10.9924 10.6064C11.3764 10.4354 11.899 10.3916 12.8002 10.4C13.5016 10.4066 13.7038 10.4486 13.9774 10.5116C14.8048 10.7024 14.6002 11.2058 14.6002 12.9734C14.6002 13.5398 14.5222 14.336 14.9494 14.6C15.1336 14.714 15.7648 14.8532 16.888 13.0292C17.4214 12.164 17.8456 10.7288 17.8456 10.7288C17.8456 10.7288 17.9332 10.571 18.0694 10.493C18.2086 10.4132 18.2044 10.415 18.3952 10.415C18.586 10.415 20.4994 10.4 20.9194 10.4C21.3388 10.4 21.7324 10.3952 21.8002 10.6412C21.8974 10.9946 21.4906 12.2054 20.4598 13.5194C18.766 15.6758 18.5782 15.4742 19.984 16.721Z" fill="#989898"/>
</svg>
