<svg width="36" height="26" viewBox="0 0 36 26" fill="none" xmlns="http://www.w3.org/2000/svg">
<path fill-rule="evenodd" clip-rule="evenodd" d="M14.283 17.3295L14.2819 7.21462L24.0086 12.2895L14.283 17.3295ZM35.64 5.46187C35.64 5.46187 35.2879 2.98125 34.209 1.88888C32.8399 0.4545 31.3054 0.44775 30.6023 0.3645C25.5645 4.47035e-08 18.0079 0 18.0079 0H17.9921C17.9921 0 10.4355 4.47035e-08 5.39775 0.3645C4.6935 0.44775 3.16013 0.4545 1.78987 1.88888C0.711 2.98125 0.36 5.46187 0.36 5.46187C0.36 5.46187 0 8.37563 0 11.2882V14.0198C0 16.9335 0.36 19.8461 0.36 19.8461C0.36 19.8461 0.711 22.3267 1.78987 23.4191C3.16013 24.8535 4.959 24.8085 5.76 24.9581C8.64 25.2349 18 25.3204 18 25.3204C18 25.3204 25.5645 25.3091 30.6023 24.9446C31.3054 24.8602 32.8399 24.8535 34.209 23.4191C35.2879 22.3267 35.64 19.8461 35.64 19.8461C35.64 19.8461 36 16.9335 36 14.0198V11.2882C36 8.37563 35.64 5.46187 35.64 5.46187Z" fill="#989898"/>
</svg>
